<svg xmlns="http://www.w3.org/2000/svg" width="122" height="150" viewBox="0 0 122 150">
  <defs>
    <style>
      .cls-1 {
        isolation: isolate;
      }

      .cls-2 {
        fill: #1e5288;
      }

      .cls-3 {
        fill: #78c5db;
      }
    </style>
  </defs>
  <g id="icon-5" transform="translate(757.321 -1049.176)">
    <g id="Group_278" data-name="Group 278" transform="translate(-757.321 1049.176)">
      <g id="Group_277" data-name="Group 277" class="cls-1">
        <g id="Group_267" data-name="Group 267" transform="translate(43.446 34.921)">
          <path id="Path_706" data-name="Path 706" class="cls-2" d="M-637.027,1084.195l-17.453,17.722h-58.48l17.453-17.722Z" transform="translate(712.96 -1084.195)"/>
        </g>
        <g id="Group_268" data-name="Group 268" transform="translate(92.945 120.268)">
          <path id="Path_707" data-name="Path 707" class="cls-2" d="M-634.406,1169.814l-17.453,17.722h-11.6l17.453-17.722Z" transform="translate(663.461 -1169.814)"/>
        </g>
        <g id="Group_269" data-name="Group 269" transform="translate(59.547 83.825)">
          <path id="Path_708" data-name="Path 708" class="cls-2" d="M-679.382,1146.8l-17.453,17.722-.415-13.543,17.453-17.722Z" transform="translate(697.25 -1133.262)"/>
        </g>
        <g id="Group_270" data-name="Group 270">
          <path id="Path_709" data-name="Path 709" class="cls-2" d="M-737.676,1120.747l-17.453,17.722-2.191-71.571,17.453-17.722Z" transform="translate(757.321 -1049.176)"/>
        </g>
        <g id="Group_271" data-name="Group 271" transform="translate(2.191 71.371)">
          <path id="Path_710" data-name="Path 710" class="cls-2" d="M-726.083,1120.747l-17.453,17.722h-11.593l17.453-17.722Z" transform="translate(755.129 -1120.747)"/>
        </g>
        <g id="Group_272" data-name="Group 272" transform="translate(14.168 83.851)">
          <path id="Path_711" data-name="Path 711" class="cls-2" d="M-679.8,1133.262l-17.453,17.722h-45.9l17.453-17.722Z" transform="translate(743.153 -1133.262)"/>
        </g>
        <g id="Group_273" data-name="Group 273" transform="translate(13.785 71.35)">
          <path id="Path_712" data-name="Path 712" class="cls-2" d="M-725.7,1133.262l-17.453,17.722-.383-12.515,17.453-17.722Z" transform="translate(743.536 -1120.747)"/>
        </g>
        <g id="Group_274" data-name="Group 274" transform="translate(4.062 132.278)">
          <path id="Path_713" data-name="Path 713" class="cls-2" d="M-646.555,1181.824l-17.3,17.722h-89.4l17.3-17.722Z" transform="translate(753.259 -1181.824)"/>
        </g>
        <g id="Group_275" data-name="Group 275" transform="translate(17.453)">
          <path id="Path_714" data-name="Path 714" class="cls-3" d="M-638.982,1049.176l1.063,34.921h-57.973l.411,13.5h46.471l.38,12.489h11.5l1.808,59.4h-11.5l.365,11.976h-89.384l-1.063-34.921h57l-.411-13.505h-45.5l-.38-12.48H-737.7l-2.172-71.371Z" transform="translate(739.867 -1049.176)"/>
        </g>
        <g id="Group_276" data-name="Group 276" transform="translate(2.989 97.259)">
          <path id="Path_715" data-name="Path 715" class="cls-2" d="M-735.806,1181.824l-17.453,17.722-1.072-35.019,17.453-17.722Z" transform="translate(754.331 -1146.805)"/>
        </g>
      </g>
    </g>
  </g>
</svg>
